# xmcd
#
# Track frame offsets:
#	150
#	24635
#	47690
#	67342
#	88688
#	123677
#	169729
#	193492
#	219519
#
# Disc length: 3432 seconds
#
# Revision: 1
# Processed by: cddbd v1.4PL0 Copyright (c) Steve Scherf et al.
# Submitted via: audiograbber 1.81.01
#
DISCID=8c0d6609
DTITLE=Big Blues Revival - The Lost Band Blues
DYEAR=2003
DGENRE=Blues
TTITLE0=I'm Ready (Willie Dixon)
TTITLE1=Heart Attack and Wine (Tom Waits)
TTITLE2=Good Morning Little School Girl (S.B. Williamson)
TTITLE3=Icacream Man (John Brim)
TTITLE4=Just Want To Make Love To You (Willie Dixon)
TTITLE5=Bring It On Home (S.B. Williamson)
TTITLE6=I'm The Cool (Robert Duffey/Mike Keneally)
TTITLE7=Every Day I Have The Blues (P. Chatman)
TTITLE8=Spoonfull (Willie Dixon)
EXTD=Max Nekrasov - harmonica\nAnton Kapelnitsky - guitar\nDmitry Krishevichus 
EXTD=keyboard\nSergey Mironov - bass\nEvgeni Bobrov - drums\nAlexander Rozhde
EXTD=stvensky - guitar\nVitali Andreev - vocal\n\nLidia Vereschagina - photogra
EXTD=phy\nOlga Akulenko - art manager
EXTT0=
EXTT1=
EXTT2=
EXTT3=
EXTT4=
EXTT5=
EXTT6=
EXTT7=
EXTT8=
PLAYORDER=
